<?xml version="1.0" standalone="no"?>
<!DOCTYPE svg PUBLIC "-//W3C//DTD SVG 20010904//EN"
 "http://www.w3.org/TR/2001/REC-SVG-20010904/DTD/svg10.dtd">
<svg version="1.0" xmlns="http://www.w3.org/2000/svg"
 width="500.000000pt" height="500.000000pt" viewBox="0 0 500.000000 500.000000"
 preserveAspectRatio="xMidYMid meet">
<metadata>
Created by potrace 1.11, written by Peter Selinger 2001-2013
</metadata>
<g transform="translate(0.000000,500.000000) scale(0.100000,-0.100000)"
fill="#000000" stroke="none">
<path d="M0 2500 l0 -2500 2500 0 2500 0 0 2500 0 2500 -2500 0 -2500 0 0
-2500z m3005 2005 c44 -55 91 -114 103 -131 18 -26 42 -38 144 -74 295 -100
534 -243 718 -429 200 -201 309 -407 356 -671 29 -167 18 -435 -24 -594 -4
-15 -8 61 -8 171 0 222 -14 330 -66 493 -109 342 -341 627 -683 840 -77 48
-367 191 -373 185 -3 -2 22 -46 55 -97 33 -51 81 -132 107 -180 39 -73 60 -98
124 -152 205 -172 367 -368 462 -561 108 -218 144 -368 144 -605 1 -183 -17
-295 -75 -475 -39 -119 -150 -357 -189 -405 -15 -18 -12 -6 10 39 87 177 165
422 189 594 16 113 14 339 -4 443 -36 207 -130 428 -263 613 -61 86 -284 331
-302 331 -3 0 15 -65 42 -144 64 -189 87 -309 95 -487 9 -222 -21 -412 -98
-611 l-31 -80 -21 31 -20 32 27 87 c115 378 95 754 -62 1154 l-46 118 -116 83
c-64 45 -127 89 -140 98 -14 9 -22 20 -19 23 7 7 99 -46 186 -105 23 -16 44
-29 48 -29 18 0 -159 295 -188 315 -12 7 -53 23 -92 36 -38 12 -74 26 -80 31
-11 10 17 5 99 -18 27 -8 51 -12 53 -10 6 5 -168 234 -253 332 -123 142 -124
146 -4 24 62 -63 150 -160 195 -215z m-1518 -167 c-3 -7 -5 -2 -5 12 0 14 2
19 5 13 2 -7 2 -19 0 -25z m1333 -68 c88 -44 160 -85 160 -91 0 -6 -15 -1 -33
10 -18 11 -94 52 -168 90 -74 39 -131 71 -126 71 4 0 79 -36 167 -80z m-1311
-357 c37 -196 111 -382 215 -542 l45 -70 73 33 c80 37 279 109 285 103 2 -2
-18 -12 -44 -22 -80 -29 -283 -136 -283 -148 0 -21 237 -243 328 -307 172
-121 378 -219 622 -297 116 -37 79 -36 -72 3 -332 84 -630 246 -842 456 l-108
108 -47 -35 c-71 -51 -192 -183 -228 -246 -132 -234 -89 -516 122 -802 l65
-87 49 0 c83 0 239 35 336 75 17 7 50 21 75 31 133 56 328 220 429 364 49 69
60 67 23 -5 -65 -131 -193 -278 -309 -355 l-73 -49 37 -10 c191 -52 463 -91
669 -98 l182 -6 63 86 c60 80 78 95 86 71 2 -5 -22 -40 -54 -78 -38 -46 -50
-67 -37 -63 10 3 32 8 48 12 15 3 48 15 73 27 l45 21 21 -22 c22 -22 22 -22 2
-37 -29 -22 -110 -43 -190 -51 l-70 -6 -75 -71 c-126 -120 -150 -135 -52 -36
50 53 92 99 92 103 0 4 -29 7 -64 7 -131 0 -372 40 -647 107 l-147 35 -67 -27
c-91 -36 -198 -55 -312 -55 l-96 0 19 -22 19 -23 -26 23 c-18 15 -49 26 -95
34 -85 13 -101 23 -21 13 31 -4 57 -4 57 0 0 4 -27 38 -59 76 -216 249 -302
479 -255 680 34 144 163 309 320 409 l71 44 -42 66 c-158 244 -225 534 -199
865 l8 110 7 -142 c4 -79 17 -191 28 -250z m-294 106 c43 -16 75 -38 115 -78
56 -57 115 -162 126 -224 4 -22 -5 -9 -30 41 -83 170 -239 269 -431 273 -54 1
-56 2 -25 10 60 13 180 3 245 -22z m264 -389 c0 -10 -3 -8 -9 5 -12 27 -12 43
0 25 5 -8 9 -22 9 -30z m8 -52 c-3 -8 -6 -5 -6 6 -1 11 2 17 5 13 3 -3 4 -12
1 -19z m1908 -1108 c3 -11 -3 -37 -15 -59 -11 -23 -17 -41 -12 -41 28 0 59
-156 43 -216 -11 -40 -45 -94 -59 -94 -4 0 -15 12 -26 26 -18 25 -18 26 2 47
31 33 42 71 42 140 0 98 -10 99 -70 8 -29 -45 -57 -81 -62 -81 -24 0 -15 35
30 113 27 48 60 111 73 141 24 55 40 60 54 16z m-622 -904 c8 -54 -2 -198 -18
-266 -3 -14 -3 -62 1 -108 5 -73 9 -85 28 -94 42 -18 12 -83 -35 -76 -36 5
-61 50 -68 120 l-6 63 -21 -35 c-30 -50 -109 -135 -149 -160 -40 -25 -72 -20
-107 17 -21 22 -23 33 -21 106 1 77 20 157 54 230 27 59 132 92 201 63 20 -9
40 -20 43 -26 16 -25 26 8 25 78 -3 160 -4 154 32 150 32 -3 33 -5 41 -62z
m-1292 -62 c21 -26 24 -233 5 -371 -16 -114 -32 -183 -45 -193 -3 -3 -16 -23
-28 -45 -55 -102 -254 -134 -428 -68 -53 20 -66 46 -33 67 13 8 26 6 53 -7 20
-10 70 -22 111 -28 104 -14 182 7 217 60 13 20 27 47 31 61 30 103 30 99 41
228 5 53 3 113 -5 172 -11 80 -11 92 4 115 19 29 57 33 77 9z m1643 -55 c22
-6 51 -16 63 -21 12 -6 29 -8 38 -5 27 11 40 -34 27 -95 -6 -29 -14 -90 -18
-136 -6 -70 -4 -88 12 -118 l19 -36 -24 -19 c-47 -39 -78 11 -81 131 l-1 45
-17 -24 c-53 -77 -150 -171 -177 -171 -7 0 -27 14 -45 30 l-32 30 7 78 c4 42
18 108 31 146 13 38 24 76 24 84 0 18 36 64 63 79 28 15 59 16 111 2z m-1286
-53 c56 -29 102 -103 102 -163 0 -91 -82 -195 -179 -227 -95 -31 -142 -17
-159 49 -15 54 25 233 59 271 10 11 19 24 19 28 0 4 12 18 28 31 31 28 88 33
130 11z m237 -13 c3 -10 9 -48 12 -85 l6 -67 28 39 c41 56 127 111 184 118 46
5 47 5 43 -24 -3 -24 -9 -30 -45 -39 -23 -5 -59 -23 -80 -39 -40 -30 -93 -103
-93 -128 0 -8 -5 -19 -12 -26 -7 -7 -12 -36 -12 -66 1 -47 -2 -55 -22 -65 -54
-24 -64 -1 -64 156 0 62 -5 135 -11 163 -8 39 -8 54 1 65 17 21 56 19 65 -2z
m1387 -32 c6 -16 7 -65 3 -126 -3 -55 -4 -97 -2 -95 28 30 120 165 129 190 10
27 85 72 107 65 29 -9 38 -29 50 -116 12 -85 26 -129 41 -129 5 0 10 -7 10
-15 0 -8 5 -15 10 -15 19 0 72 44 86 73 9 16 23 27 35 27 73 0 -12 -145 -101
-171 -33 -10 -43 -9 -63 4 -31 20 -60 82 -82 175 -20 83 -26 83 -75 -3 -16
-28 -63 -90 -104 -137 l-74 -84 1 -60 2 -59 85 -3 c107 -3 119 -7 96 -30 -10
-10 -52 -23 -104 -32 l-87 -15 -3 -72 c-3 -79 12 -124 49 -143 16 -9 27 -7 55
9 38 23 69 27 79 11 4 -7 13 -6 26 1 23 12 59 3 75 -19 10 -14 24 -15 109 -5
53 7 100 15 103 18 8 8 -17 24 -48 31 -14 3 -56 17 -95 33 -75 29 -115 71
-115 119 0 72 98 142 199 142 76 0 109 -31 78 -74 -11 -15 -18 -16 -54 -7 -43
12 -98 -3 -135 -37 -46 -40 -15 -66 128 -107 95 -28 112 -37 125 -72 7 -18 3
-32 -13 -57 -31 -47 -90 -64 -209 -61 -120 3 -148 11 -160 43 l-10 25 -22 -20
c-34 -31 -62 -43 -102 -43 -90 0 -135 64 -139 198 l-2 87 -31 8 c-21 6 -33 18
-38 34 -8 35 3 46 43 39 l35 -5 -6 75 c-7 72 -6 75 17 85 24 11 24 13 25 166
1 85 6 163 11 173 13 25 49 14 62 -19z m-1132 -404 c0 -5 -27 -66 -60 -134
-33 -69 -60 -127 -60 -129 0 -2 -15 -27 -34 -56 -47 -74 -100 -128 -123 -128
-35 0 -70 48 -98 133 -29 86 -81 187 -96 187 -19 0 -9 59 11 70 17 9 25 6 50
-19 17 -16 30 -36 30 -44 0 -8 7 -17 15 -21 8 -3 15 -13 15 -21 0 -20 26 -107
48 -158 l16 -38 32 33 c32 31 144 222 159 269 4 12 21 37 38 55 23 26 33 31
44 23 7 -6 13 -16 13 -22z m-558 -26 c78 -69 10 -198 -120 -226 -35 -7 -46
-22 -56 -77 -6 -31 -3 -39 16 -52 12 -9 35 -16 50 -16 29 0 93 35 117 64 18
22 38 20 51 -4 14 -26 -12 -65 -71 -106 -34 -23 -53 -29 -94 -28 -119 1 -158
87 -119 259 4 17 7 42 6 58 -1 19 4 27 16 27 10 0 26 16 37 35 21 40 89 95
117 95 10 0 32 -13 50 -29z m810 0 c78 -69 10 -198 -120 -226 -35 -7 -46 -22
-55 -73 -8 -41 19 -72 63 -72 31 0 94 34 119 64 18 22 38 20 51 -4 14 -26 -12
-65 -71 -106 -34 -23 -53 -29 -94 -28 -119 1 -158 87 -119 259 4 17 7 42 6 58
-1 19 4 27 16 27 10 0 26 16 37 35 21 40 89 95 117 95 10 0 32 -13 50 -29z
m466 -56 c11 -14 25 -55 31 -93 18 -107 21 -115 45 -146 l23 -28 56 56 c36 37
60 54 70 50 39 -15 15 -77 -54 -138 -30 -28 -48 -36 -77 -36 -60 0 -94 47
-121 170 -19 84 -19 84 -36 70 -8 -7 -28 -35 -44 -64 -27 -46 -87 -121 -148
-183 -24 -25 -48 -22 -64 10 -15 27 -12 316 2 334 15 18 34 16 54 -4 15 -14
17 -33 12 -130 l-5 -113 29 42 c16 24 44 65 64 93 19 27 35 54 36 60 0 14 78
75 94 75 8 0 22 -11 33 -25z"/>
<path d="M2506 1339 c-14 -17 -26 -38 -26 -47 0 -9 -7 -30 -16 -47 -9 -16 -19
-58 -21 -92 -5 -59 -4 -63 15 -63 25 0 103 64 127 105 10 17 31 46 47 66 34
45 35 53 3 84 -37 38 -95 35 -129 -6z"/>
<path d="M3038 1360 c-17 -12 -28 -34 -32 -61 -4 -22 -13 -54 -21 -69 -8 -16
-18 -55 -21 -87 l-7 -58 34 30 c82 72 179 195 179 226 0 40 -89 53 -132 19z"/>
<path d="M1754 1316 c-60 -64 -110 -216 -81 -245 34 -34 135 13 178 82 26 41
21 99 -12 149 -32 49 -50 52 -85 14z"/>
<path d="M1684 836 c-43 -43 -45 -62 -5 -41 37 19 61 43 61 61 0 23 -20 16
-56 -20z"/>
<path d="M2494 836 c-43 -43 -45 -62 -5 -41 37 19 61 43 61 61 0 23 -20 16
-56 -20z"/>
</g>
</svg>
